<?xml version="1.0" encoding="utf-8"?>
<!-- Generator: Adobe Illustrator 19.2.1, SVG Export Plug-In . SVG Version: 6.00 Build 0)  -->
<svg version="1.1" id="Layer_1" xmlns="http://www.w3.org/2000/svg" xmlns:xlink="http://www.w3.org/1999/xlink" x="0px" y="0px"
	 viewBox="0 0 1854 595.3" style="enable-background:new 0 0 1854 595.3;" xml:space="preserve">
<style type="text/css">
	.st0{fill:#FFFFFF;stroke:#FFFFFF;stroke-miterlimit:10;}
</style>
<path class="st0" d="M307,186.9c0,0-1.1-0.7-1.1-0.7c-0.2-0.1-3.5-1.9-3.5-1.9l-0.1-0.1l-0.4-0.2c-13.8-6.2-34.4-4.2-56.6,5.6l0.1,0
	c0,0-5.7,2.4-12.4,6.9c-15.5,9.6-32.3,23.2-49.7,40.5c-21.7,21.2-39.4,43.5-52.7,66.4c0,0-2.8,5-4.5,8c-24.8,41.1-26.4,75.8-18,94.7
	c1.9,4.8,5.8,9.7,10,13.9c2.7,2.9,6.4,6.3,10.7,9.4c0.2,0.2,0.6,0.5,0.6,0.5c8.7,6.2,20.2,11.7,34.1,11.7
	c42.3,0,70.8-44.5,77.3-62.7c-17.2,18.4-36.6,28-36.6,28l0,0c-12,6.3-21.4,7.7-33.9,7.7c-10.4,0-35.3-5.1-40.6-27.2
	c-0.1-0.3-0.1-0.6-0.2-0.9c-0.2-0.8-0.3-1.7-0.4-2.6c-0.1-1-0.2-1.9-0.3-2.9c-0.1-1.4-0.2-2.8-0.1-4.2c1-23.3,15.6-51.7,23-64.6
	c1.6-2.8,3.3-5.6,5.1-8.5c0,0,3.6-5.7,3.6-5.7c9.1-13.8,19.6-27,31.4-39.2c6.7-8,60.3-62.3,94.3-62.3c0.1,0,12.3,0.2,17.1,9.6
	c4.7,9.2,4,29.3-26.7,72.7c0,0-2.1,2.9-2.1,2.9l-1.6,2.2c-10,13.9-22.5,30.3-44.9,49.2c-0.1,0.1-7.9,6.8-7.9,6.8
	c-20.2,16.5-37.8,27.5-54,33.8c-6.6,2.6-16.2,5.3-26,7.4c0.3,4.2,2.3,13.4,14,19.2c6-1.2,12.9-3.4,18-5.3
	c25.1-9.2,49.2-23.4,71.9-42.1c9.5-7.9,18.6-16.5,26.9-25.5c0,0,1.4-1.5,1.4-1.5c0,0,3.1-3.5,3.1-3.5c0,0,15.1-18.9,15.1-18.9
	c0,0,4.3-6,4.3-6c7.5-11.1,11.1-17.5,16.8-29.3c15.4-32.9,16.3-57.4,2.5-74.6C312.1,191.1,309.8,188.9,307,186.9z M257.6,143.7
	c-19.1,1.5-33.8,6.8-40.8,9.1c0,0-121.5,47.4-158.1,173.1c-2.3,7.7-2.9,15.2-2.9,22.1c0,2.3,0.1,4.5,0.3,6.7
	c0.8,8.6,3.4,16.2,7.5,22.8c0.1,0.2,4.6,6.1,4.6,6.1c0.2,0.2,2.3,2.3,2.3,2.3c5.7,5.7,13.3,10,22.7,12.8l4.5,1.3
	c-2.6-10.5-2.5-18.1-1.9-22.5l-1.4-0.6c-4.1-1.9-7.4-4.2-9.8-6.9c-3.5-4.1-5.1-9.4-6.2-15.3c-8.9-46.8,56.5-135.3,127.1-173.2l0,0
	c0.3-0.2,0.6-0.3,0.9-0.4c3-1.6,5.9-3,8.9-4.4c1.8-0.9,3.6-1.6,5.4-2.4c0.5-0.2,1.1-0.5,1.6-0.7c22.8-9.9,44.3-14.2,69-11.4
	c30.7,3.5,35.5,16.2,35.5,16.2S318.8,139.3,257.6,143.7z"/>
<g>
	<path class="st0" d="M577.7,423c-3.8,1.1-7.4,1.9-15.6,1.9c-40.8,0-73.7-33.7-81.4-41.9c-56.2-0.8-88.3-44.4-88.3-88
		c0-49.9,40.8-91.3,98.1-91.3c62.8,0,92.6,44.7,92.6,88c0,36.2-20.6,74.8-67.1,88c25.8,25.2,44.7,29.6,60.3,30.4L577.7,423z
		 M423.1,290.9c0,42.2,28.5,75.9,67.1,75.9c36.2,0,62.2-29.9,62.2-70.2c0-38.4-24.9-75.6-63.9-75.6
		C436.2,221,423.1,265.2,423.1,290.9z"/>
	<path class="st0" d="M645.1,206.6v93.2c0,27.1,0,38.9,6.6,48.8c9.6,13.7,34.5,14.3,39.7,14.3c13.7,0,33.7-4.1,43.3-18.4
		c6.9-9.9,7.4-27.1,7.4-49.6v-88.3h22.5l-0.8,88c-0.3,34.8-3,54-16.7,68c-13.2,13.2-35.1,21.1-63,21.1c-38.1,0-51-13.7-57-22.5
		c-8.5-12.1-10.1-23.6-10.1-60.6v-94H645.1z"/>
	<path class="st0" d="M883.9,206.6l68.8,173.8H922l-20-54.5h-72.4l-22.2,54.5h-26.6l81.7-173.8H883.9z M895.7,309.4l-28-75.1
		l-31.2,75.1H895.7z"/>
	<path class="st0" d="M1133.9,379.1l-14.5,4.4l-122-138.2l3.3,135.1h-22.5l0.5-173.8h20.6l115.9,131.6l-3.6-131.6h22.5L1133.9,379.1
		z"/>
	<path class="st0" d="M1332.8,206.6V225h-71.5v155.4H1233V225h-71v-18.4H1332.8z"/>
	<path class="st0" d="M1394.9,206.6v173.8h-28.2V206.6H1394.9z"/>
	<path class="st0" d="M1458.8,206.6v93.2c0,27.1,0,38.9,6.6,48.8c9.6,13.7,34.5,14.3,39.7,14.3c13.7,0,33.7-4.1,43.3-18.4
		c6.8-9.9,7.4-27.1,7.4-49.6v-88.3h22.5l-0.8,88c-0.3,34.8-3,54-16.7,68c-13.2,13.2-35.1,21.1-63,21.1c-38.1,0-51-13.7-57-22.5
		c-8.5-12.1-10.2-23.6-10.2-60.6v-94H1458.8z"/>
	<path class="st0" d="M1815.3,380.4h-27.7l-3-137.1l-68.8,134.3l-11.2,1.6l-65.8-137.1l-2.2,138.2h-23l10.4-173.8h26.6l64.7,134.3
		l68.5-134.3h26.3L1815.3,380.4z"/>
</g>
</svg>
