<svg id="Layer_1" data-name="Layer 1" xmlns="http://www.w3.org/2000/svg" viewBox="0 0 1761.14 299.38"><defs><style>.cls-1{fill:#9d1c20;stroke:#9d1c20;stroke-width:1.1px;}.cls-2{fill:#231f20;stroke:#231f20;stroke-width:2px;}</style></defs><title>QUANTIUM_logo</title><path class="cls-1" d="M307,186.95s-1.12-.73-1.12-0.73c-0.2-.12-3.5-1.92-3.5-1.92l-0.12-.08-0.41-.18c-13.82-6.19-34.44-4.16-56.62,5.58l0.11,0A74.1,74.1,0,0,0,233,196.54c-15.53,9.58-32.3,23.24-49.73,40.49-21.66,21.18-39.4,43.53-52.72,66.4l-4.53,8c-24.82,41.13-26.4,75.81-18,94.72,1.95,4.79,5.82,9.66,10,13.89a79.8,79.8,0,0,0,10.69,9.44l0.61,0.46c8.68,6.24,20.24,11.71,34.12,11.71,42.29,0,70.82-44.48,77.26-62.73a143.26,143.26,0,0,1-36.58,28l0,0c-12,6.34-21.36,7.73-33.9,7.72-10.38,0-35.3-5.14-40.58-27.15-0.07-.3-0.11-0.61-0.17-0.92-0.18-.83-0.29-1.71-0.42-2.58s-0.22-1.92-.29-2.91a41.16,41.16,0,0,1-.09-4.25c1-23.25,15.64-51.68,23-64.62,1.64-2.82,3.31-5.63,5.11-8.5l3.65-5.66a273.19,273.19,0,0,1,31.37-39.23c6.65-8,60.26-62.27,94.28-62.27,0.11,0,12.26.19,17.09,9.63,4.74,9.24,4,29.35-26.66,72.68l-2.13,2.9-1.6,2.18c-10,13.89-22.46,30.31-44.89,49.25l-7.88,6.8c-20.17,16.46-37.85,27.53-54,33.81a166.62,166.62,0,0,1-26,7.36c0.29,4.23,2.34,13.43,14,19.15a140.46,140.46,0,0,0,18-5.29c25.06-9.21,49.25-23.36,71.9-42.09a276.92,276.92,0,0,0,26.89-25.51s1.4-1.5,1.4-1.5,3.08-3.49,3.08-3.49l15.13-18.94,4.28-6a198.22,198.22,0,0,0,16.79-29.32c15.39-32.93,16.26-57.42,2.5-74.56A29.07,29.07,0,0,0,307,186.95ZM257.6,143.71c-19.06,1.53-33.81,6.83-40.82,9.12,0,0-121.5,47.37-158.15,173.06A78,78,0,0,0,55.78,348a64.78,64.78,0,0,0,.33,6.71,52,52,0,0,0,7.53,22.84c0.11,0.18,4.61,6.1,4.61,6.1,0.19,0.23,2.25,2.27,2.25,2.27,5.69,5.7,13.35,10,22.69,12.83L97.67,400C95,389.59,95.21,382,95.76,377.55l-1.39-.64A29.92,29.92,0,0,1,84.62,370c-3.5-4.13-5.08-9.38-6.21-15.33-8.9-46.8,56.46-135.27,127.11-173.17h0c0.29-.15.56-0.28,0.85-0.42,3-1.58,5.94-3,8.92-4.43,1.82-.86,3.61-1.63,5.41-2.42,0.53-.22,1.05-0.47,1.57-0.69,22.84-9.85,44.33-14.2,69-11.38,30.65,3.52,35.46,16.16,35.46,16.16S318.75,139.32,257.6,143.71Z" transform="translate(-55.23 -142.82)"/><path class="cls-2" d="M577.66,423c-3.84,1.1-7.4,1.92-15.62,1.92-40.85,0-73.74-33.71-81.41-41.94-56.2-.82-88.26-44.41-88.26-88,0-49.88,40.84-91.27,98.13-91.27,62.77,0,92.64,44.67,92.64,88,0,36.19-20.56,74.84-67.15,88,25.76,25.21,44.68,29.59,60.3,30.43ZM423.07,290.92c0,42.21,28.51,75.92,67.15,75.92,36.19,0,62.22-29.88,62.22-70.18,0-38.36-24.94-75.64-63.86-75.64C436.23,221,423.07,265.16,423.07,290.92Z" transform="translate(-55.23 -142.82)"/><path class="cls-2" d="M645.11,206.63v93.21c0,27.13,0,38.91,6.59,48.78,9.6,13.71,34.54,14.26,39.75,14.26,13.7,0,33.71-4.12,43.3-18.36,6.86-9.87,7.4-27.13,7.4-49.61V206.63h22.48l-0.83,88c-0.27,34.81-3,54-16.72,68-13.15,13.15-35.08,21.11-63,21.11-38.09,0-51-13.71-57-22.48-8.49-12.07-10.15-23.57-10.15-60.57v-94h28.23Z" transform="translate(-55.23 -142.82)"/><path class="cls-2" d="M883.94,206.63l68.79,173.8H922l-20-54.55H829.67l-22.2,54.55H780.88l81.68-173.8h21.38Zm11.79,102.8-28-75.1-31.25,75.1h59.21Z" transform="translate(-55.23 -142.82)"/><path class="cls-2" d="M1133.93,379.06l-14.53,4.39-122-138.16,3.29,135.14H978.24l0.54-173.8h20.56l115.94,131.57-3.55-131.57h22.46Z" transform="translate(-55.23 -142.82)"/><path class="cls-2" d="M1332.75,206.63V225h-71.54V380.44H1233V225h-71V206.63h170.76Z" transform="translate(-55.23 -142.82)"/><path class="cls-2" d="M1394.85,206.63v173.8h-28.22V206.63h28.22Z" transform="translate(-55.23 -142.82)"/><path class="cls-2" d="M1458.83,206.63v93.21c0,27.13,0,38.91,6.57,48.78,9.59,13.71,34.55,14.26,39.75,14.26,13.71,0,33.71-4.12,43.32-18.36,6.84-9.87,7.4-27.13,7.4-49.61V206.63h22.46l-0.83,88c-0.26,34.81-3,54-16.72,68-13.15,13.15-35.08,21.11-63,21.11-38.11,0-51-13.71-57-22.48-8.5-12.07-10.15-23.57-10.15-60.57v-94h28.25Z" transform="translate(-55.23 -142.82)"/><path class="cls-2" d="M1815.34,380.44h-27.68l-3-137.06-68.82,134.32-11.23,1.64-65.77-137.06-2.22,138.17h-23l10.4-173.8h26.59L1715.28,341l68.53-134.32h26.31Z" transform="translate(-55.23 -142.82)"/></svg>