<?xml version="1.0" encoding="utf-8"?>
<!-- Generator: Adobe Illustrator 19.2.1, SVG Export Plug-In . SVG Version: 6.00 Build 0)  -->
<svg version="1.1" id="Layer_1" xmlns="http://www.w3.org/2000/svg" xmlns:xlink="http://www.w3.org/1999/xlink" x="0px" y="0px"
	 viewBox="0 0 27.8 25.1" style="enable-background:new 0 0 27.8 25.1;" xml:space="preserve">
<style type="text/css">
	.st0{fill:#B7B7B7;}
</style>
<path class="st0" d="M14,13.7c3.6,0,6.6-3.1,6.6-6.6s-3-6.6-6.6-6.6S7.3,3.5,7.3,7.1S10.4,13.7,14,13.7z M14,2.7
	c2.5,0,4.4,1.9,4.4,4.4s-1.9,4.4-4.4,4.4S9.6,9.5,9.6,7.1C9.4,4.6,11.5,2.7,14,2.7z"/>
<path class="st0" d="M1.7,24.5c0.6,0,1.1-0.6,1.1-1.1v-3.6c0-1.1,0.6-2.1,1.7-2.5l4.4-1.7l4.4,4.9c0.2,0.2,0.6,0.4,0.8,0.4
	c0.4,0,0.6-0.2,0.8-0.4l4.4-4.9l4.4,1.7c0.9,0.4,1.7,1.3,1.7,2.5v3.8c0,0.6,0.6,1.1,1.1,1.1c0.6,0,1.1-0.6,1.1-1.1V20
	c0-1.9-1.1-3.6-3.1-4.4l-4.9-2.1c-0.4-0.2-0.9,0-1.1,0.2l-4.1,4.5L10,13.7c-0.4-0.4-0.8-0.4-1.1-0.2l-5.3,2.1
	c-1.9,0.8-3.1,2.5-3.1,4.4v3.6C0.7,24.1,1.1,24.5,1.7,24.5z"/>
</svg>
