<?xml version="1.0" encoding="utf-8"?>
<!-- Generator: Adobe Illustrator 18.1.1, SVG Export Plug-In . SVG Version: 6.00 Build 0)  -->
<!DOCTYPE svg PUBLIC "-//W3C//DTD SVG 1.1//EN" "http://www.w3.org/Graphics/SVG/1.1/DTD/svg11.dtd">
<svg version="1.1" id="Layer_1" xmlns="http://www.w3.org/2000/svg" xmlns:xlink="http://www.w3.org/1999/xlink" x="0px" y="0px"
	 viewBox="0.1 26.6 63.9 10.8" enable-background="new 0.1 26.6 63.9 10.8" xml:space="preserve">
<g>
	<path fill="#FFFFFF" d="M9.2,28.2L9.2,28.2c0,0-0.2-0.1-0.2-0.1l0,0l0,0c-0.5-0.2-1.3-0.1-2.1,0.2l0,0c0,0-0.2,0.1-0.4,0.2
		c-0.6,0.3-1.2,0.8-1.8,1.5c-0.8,0.8-1.4,1.6-1.9,2.4c0,0-0.1,0.2-0.2,0.3c-0.9,1.5-1,2.8-0.7,3.4c0.1,0.2,0.2,0.3,0.4,0.5
		c0.1,0.1,0.2,0.2,0.4,0.3c0,0,0,0,0,0C3,37.2,3.5,37.4,4,37.4c1.5,0,2.6-1.6,2.8-2.3c-0.6,0.7-1.3,1-1.3,1l0,0
		c-0.4,0.2-0.8,0.3-1.2,0.3c-0.4,0-1.3-0.2-1.5-1c0,0,0,0,0,0c0,0,0-0.1,0-0.1c0,0,0-0.1,0-0.1c0,0,0-0.1,0-0.1
		c0-0.8,0.6-1.9,0.8-2.3c0.1-0.1,0.1-0.2,0.2-0.3l0.1-0.2c0.3-0.5,0.7-1,1.1-1.4c0.2-0.3,2.2-2.3,3.4-2.3c0,0,0.4,0,0.6,0.3
		s0.1,1.1-1,2.6L8,31.6l-0.1,0.1c-0.4,0.5-0.8,1.1-1.6,1.8L6,33.7c-0.7,0.6-1.4,1-2,1.2c-0.2,0.1-0.6,0.2-0.9,0.3
		c0,0.1,0.1,0.5,0.5,0.7c0.2,0,0.5-0.1,0.7-0.2c0.9-0.3,1.8-0.8,2.6-1.5c0.3-0.3,0.7-0.6,1-0.9l0,0L8,33.1l0.5-0.7l0.2-0.2
		c0.3-0.4,0.4-0.6,0.6-1.1c0.6-1.2,0.6-2.1,0.1-2.7C9.4,28.3,9.3,28.2,9.2,28.2z M7.4,26.6c-0.7,0.1-1.2,0.2-1.5,0.3
		c0,0-4.4,1.7-5.7,6.3c-0.1,0.3-0.1,0.6-0.1,0.8c0,0.1,0,0.2,0,0.2c0,0.3,0.1,0.6,0.3,0.8c0,0,0.2,0.2,0.2,0.2c0,0,0.1,0.1,0.1,0.1
		c0.2,0.2,0.5,0.4,0.8,0.5l0.2,0c-0.1-0.4-0.1-0.7-0.1-0.8l0,0c-0.1-0.1-0.3-0.1-0.4-0.2c-0.1-0.1-0.2-0.3-0.2-0.6
		c-0.3-1.7,2.1-4.9,4.6-6.3l0,0c0,0,0,0,0,0c0.1-0.1,0.2-0.1,0.3-0.2c0.1,0,0.1-0.1,0.2-0.1c0,0,0,0,0.1,0c0.8-0.3,1.6-0.5,2.5-0.4
		c1.1,0.1,1.3,0.6,1.3,0.6S9.6,26.4,7.4,26.6z"/>
	<g>
		<path fill="#FFFFFF" d="M19.2,32c0-1.6-1.1-3.2-3.4-3.2c-2,0-3.6,1.5-3.6,3.4c0,0.8,0.3,1.6,0.8,2.2c0.6,0.7,1.4,1,2.4,1
			c0.4,0.5,1.6,1.5,3,1.5c0.3,0,0.4,0,0.6-0.1l0,0L19,36.2h0c-0.5,0-1.2-0.2-2.1-1C18.6,34.7,19.2,33.1,19.2,32z M15.8,34.7
			c-1.4,0-2.4-1.2-2.4-2.7c0-0.3,0-1,0.5-1.6c0.4-0.6,1-0.9,1.9-0.9c1.4,0,2.3,1.4,2.3,2.7C18,33.6,17.1,34.7,15.8,34.7z"/>
		<path fill="#FFFFFF" d="M24.9,32.1c0,0.8,0,1.4-0.3,1.8c-0.3,0.5-1,0.6-1.5,0.6c-0.2,0-1.1,0-1.4-0.5c-0.2-0.3-0.2-0.8-0.2-1.7
			v-3.4h-1.1v3.5c0,1.4,0.1,1.8,0.4,2.2c0.2,0.4,0.7,0.8,2.1,0.8c1,0,1.8-0.3,2.3-0.8c0.5-0.5,0.6-1.3,0.6-2.5l0-3.2h-0.9
			C24.9,28.8,24.9,32.1,24.9,32.1z"/>
		<path fill="#FFFFFF" d="M29.3,28.8l-3,6.4h1.1l0.8-2h2.6l0.7,2h1.2l-2.5-6.4H29.3z M30.5,32.6h-2l1.1-2.5L30.5,32.6z"/>
		<polygon fill="#FFFFFF" points="38.5,33.5 34.3,28.8 33.5,28.8 33.5,35.2 34.4,35.2 34.3,30.4 38.6,35.3 38.7,35.4 39.3,35.2 
			39.3,28.8 38.4,28.8 		"/>
		<polygon fill="#FFFFFF" points="40.2,29.6 42.7,29.6 42.7,35.2 43.9,35.2 43.9,29.6 46.5,29.6 46.5,28.8 40.2,28.8 		"/>
		<rect x="47.6" y="28.8" fill="#FFFFFF" width="1.1" height="6.4"/>
		<path fill="#FFFFFF" d="M54.5,32.1c0,0.8,0,1.4-0.3,1.8c-0.3,0.5-1,0.6-1.5,0.6c-0.2,0-1.1,0-1.4-0.5c-0.2-0.3-0.2-0.8-0.2-1.7
			v-3.4h-1.1v3.5c0,1.4,0.1,1.8,0.4,2.2c0.2,0.4,0.7,0.8,2.1,0.8c1,0,1.8-0.3,2.3-0.8c0.5-0.5,0.6-1.3,0.6-2.5l0-3.2h-0.9
			C54.5,28.8,54.5,32.1,54.5,32.1z"/>
		<polygon fill="#FFFFFF" points="63.8,28.8 62.8,28.8 60.3,33.6 58,28.9 58,28.8 57,28.8 56.6,35.2 56.6,35.2 57.5,35.2 57.6,30.4 
			59.9,35.2 60.4,35.1 62.8,30.4 62.9,35.2 64,35.2 		"/>
	</g>
</g>
</svg>
